<svg
  xmlns="http://www.w3.org/2000/svg"
  viewBox="213 213 598 598"
  x="0px" y="0px"
>
<path fill="none" opacity="1.000000" stroke="none"
	d="
M648.000000,1025.000000
	C432.000000,1025.000000 216.500000,1025.000000 1.000000,1025.000000
	C1.000000,683.666687 1.000000,342.333344 1.000000,1.000000
	C342.333344,1.000000 683.666687,1.000000 1025.000000,1.000000
	C1025.000000,342.333344 1025.000000,683.666687 1025.000000,1025.000000
	C899.500000,1025.000000 774.000000,1025.000000 648.000000,1025.000000
M287.346344,574.071655
	C292.283569,588.889587 296.223145,604.136841 302.373749,618.432739
	C313.828674,645.057556 330.264557,668.758911 349.794922,690.096375
	C366.334473,708.166382 384.275726,724.867920 404.117920,739.352844
	C437.579102,763.779663 473.040070,784.907227 510.312286,802.977539
	C511.907257,803.750854 514.478394,804.077698 515.935730,803.329224
	C533.607239,794.253967 551.561462,785.625122 568.641541,775.526184
	C595.909668,759.403076 621.868835,741.316528 645.535095,720.076477
	C662.732056,704.642395 678.765564,688.164062 692.925171,669.892273
	C707.019165,651.705200 718.022095,631.814453 727.187561,610.684937
	C737.952209,585.869080 744.430115,559.944397 744.709595,533.229797
	C745.527222,455.088501 744.986755,376.933105 745.057495,298.783295
	C745.059937,296.083893 744.397705,294.730194 741.655823,293.949524
	C716.222412,286.708679 690.843384,279.276825 665.415344,272.016968
	C636.098633,263.646851 606.764587,255.336182 577.406799,247.111191
	C556.441650,241.237503 535.427734,235.537048 514.421509,229.811249
	C513.497253,229.559341 512.371826,229.616241 511.441223,229.882553
	C498.738861,233.517426 486.088837,237.338760 473.359100,240.873535
	C433.195435,252.026093 392.983490,263.004974 352.830170,274.194427
	C328.922302,280.856781 305.089417,287.788208 281.000061,294.662231
	C281.000061,295.206757 281.000031,295.859924 281.000031,296.513123
	C281.000397,370.663849 280.970581,444.814636 281.048706,518.965271
	C281.056396,526.262634 281.325836,533.606750 282.182739,540.845215
	C283.466919,551.692871 285.379456,562.466248 287.346344,574.071655
z"/>
<path fill="currentColor" opacity="1.000000" stroke="none"
	d="
M287.185547,573.671387
	C285.379456,562.466248 283.466919,551.692871 282.182739,540.845215
	C281.325836,533.606750 281.056396,526.262634 281.048706,518.965271
	C280.970581,444.814636 281.000397,370.663849 281.000031,296.513123
	C281.000031,295.859924 281.000061,295.206757 281.000061,294.662231
	C305.089417,287.788208 328.922302,280.856781 352.830170,274.194427
	C392.983490,263.004974 433.195435,252.026093 473.359100,240.873535
	C486.088837,237.338760 498.738861,233.517426 511.441223,229.882553
	C512.371826,229.616241 513.497253,229.559341 514.421509,229.811249
	C535.427734,235.537048 556.441650,241.237503 577.406799,247.111191
	C606.764587,255.336182 636.098633,263.646851 665.415344,272.016968
	C690.843384,279.276825 716.222412,286.708679 741.655823,293.949524
	C744.397705,294.730194 745.059937,296.083893 745.057495,298.783295
	C744.986755,376.933105 745.527222,455.088501 744.709595,533.229797
	C744.430115,559.944397 737.952209,585.869080 727.187561,610.684937
	C718.022095,631.814453 707.019165,651.705200 692.925171,669.892273
	C678.765564,688.164062 662.732056,704.642395 645.535095,720.076477
	C621.868835,741.316528 595.909668,759.403076 568.641541,775.526184
	C551.561462,785.625122 533.607239,794.253967 515.935730,803.329224
	C514.478394,804.077698 511.907257,803.750854 510.312286,802.977539
	C473.040070,784.907227 437.579102,763.779663 404.117920,739.352844
	C384.275726,724.867920 366.334473,708.166382 349.794922,690.096375
	C330.264557,668.758911 313.828674,645.057556 302.373749,618.432739
	C296.223145,604.136841 292.283569,588.889587 287.185547,573.671387
M716.999695,441.500000
	C716.999695,401.168488 716.970764,360.836914 717.054810,320.505585
	C717.061462,317.306549 716.508850,315.632996 712.882874,314.843048
	C705.969971,313.336975 699.233459,311.027710 692.413269,309.088593
	C666.503662,301.722046 640.608459,294.304108 614.672791,287.030426
	C585.609802,278.879700 556.528198,270.792969 527.407043,262.853363
	C521.895752,261.350739 515.672119,258.688141 510.612549,259.939240
	C485.684753,266.103302 461.027466,273.366516 436.295013,280.314087
	C395.256989,291.841980 354.249084,303.477814 313.176727,314.881714
	C310.007690,315.761566 308.909760,316.908600 308.948120,320.134033
	C309.833588,394.557953 306.807587,469.030701 311.241974,543.397156
	C312.056335,557.054077 314.871033,570.865051 318.764740,584.011841
	C328.880280,618.166626 347.722809,647.645935 372.122040,673.187500
	C386.330536,688.061218 402.187744,701.505798 418.218506,714.460632
	C446.254242,737.117065 477.802490,754.425598 509.358551,771.584900
	C511.241913,772.609009 514.526672,772.615112 516.482910,771.679993
	C525.746826,767.251587 534.821167,762.416321 543.879578,757.570129
	C568.628418,744.329346 591.621155,728.435059 613.508911,710.931641
	C628.857849,698.657288 643.610901,685.690613 656.574402,670.857422
	C662.281128,664.327576 667.582703,657.441895 673.023132,650.681396
	C686.071899,634.466248 695.600952,616.239685 702.945007,596.893433
	C711.056274,575.526245 717.028564,553.630615 717.006714,530.496155
	C716.979004,501.164124 716.999817,471.832062 716.999695,441.500000
z"/>
<path fill="none" opacity="1.000000" stroke="none"
	d="
M716.999695,442.000000
	C716.999817,471.832062 716.979004,501.164124 717.006714,530.496155
	C717.028564,553.630615 711.056274,575.526245 702.945007,596.893433
	C695.600952,616.239685 686.071899,634.466248 673.023132,650.681396
	C667.582703,657.441895 662.281128,664.327576 656.574402,670.857422
	C643.610901,685.690613 628.857849,698.657288 613.508911,710.931641
	C591.621155,728.435059 568.628418,744.329346 543.879578,757.570129
	C534.821167,762.416321 525.746826,767.251587 516.482910,771.679993
	C514.526672,772.615112 511.241913,772.609009 509.358551,771.584900
	C477.802490,754.425598 446.254242,737.117065 418.218506,714.460632
	C402.187744,701.505798 386.330536,688.061218 372.122040,673.187500
	C347.722809,647.645935 328.880280,618.166626 318.764740,584.011841
	C314.871033,570.865051 312.056335,557.054077 311.241974,543.397156
	C306.807587,469.030701 309.833588,394.557953 308.948120,320.134033
	C308.909760,316.908600 310.007690,315.761566 313.176727,314.881714
	C354.249084,303.477814 395.256989,291.841980 436.295013,280.314087
	C461.027466,273.366516 485.684753,266.103302 510.612549,259.939240
	C515.672119,258.688141 521.895752,261.350739 527.407043,262.853363
	C556.528198,270.792969 585.609802,278.879700 614.672791,287.030426
	C640.608459,294.304108 666.503662,301.722046 692.413269,309.088593
	C699.233459,311.027710 705.969971,313.336975 712.882874,314.843048
	C716.508850,315.632996 717.061462,317.306549 717.054810,320.505585
	C716.970764,360.836914 716.999695,401.168488 716.999695,442.000000
M517.999878,516.500000
	C517.999878,540.593140 517.999878,564.686279 517.999878,589.000122
	C547.872375,589.000122 577.187195,589.440857 606.476624,588.770264
	C617.288452,588.522705 628.377747,586.803101 638.749390,583.747986
	C660.438782,577.359009 676.776855,564.162720 684.392273,542.040039
	C688.461914,530.217834 689.133667,517.992310 688.053223,505.559937
	C686.804504,491.191406 682.091064,478.441833 672.237671,467.684082
	C665.537231,460.368713 657.338379,455.366394 647.990112,451.530670
	C664.643311,445.667389 673.990662,433.773132 679.004822,417.881958
	C682.946777,405.389069 682.987244,392.631287 680.889893,379.933868
	C678.914978,367.978302 673.787537,357.109406 665.000977,348.708069
	C651.935730,336.215790 635.440002,330.601654 617.830078,330.207733
	C585.852783,329.492462 553.847046,329.976318 521.854614,330.181641
	C519.717041,330.195404 516.867981,331.516602 515.584473,333.181458
	C509.812744,340.668243 504.480469,348.494141 499.001862,356.206390
	C483.197418,378.454346 467.398926,400.706482 451.462128,423.148438
	C449.897766,421.008881 448.418274,419.053711 447.009735,417.048706
	C428.502960,390.705109 409.782196,364.506775 391.687958,337.882690
	C387.875061,332.272339 384.155701,330.401611 377.570068,330.817657
	C366.842224,331.495392 356.040314,331.000610 345.148163,331.000610
	C345.078766,332.145416 345.006042,332.784912 345.005981,333.424377
	C345.000793,414.908783 344.979584,496.393250 345.080597,577.877502
	C345.084564,581.062866 345.947632,584.348633 346.944458,587.413879
	C351.431519,601.211487 358.715546,613.589844 366.970856,625.401001
	C371.841583,632.369629 377.090027,639.074280 382.168579,645.897583
	C382.515198,645.758850 382.861816,645.620056 383.208435,645.481262
	C383.208435,562.020203 383.208435,478.559113 383.208435,394.167236
	C384.880371,395.645386 386.025452,396.333832 386.734741,397.331970
	C407.182617,426.107910 427.610535,454.898193 447.960754,483.743195
	C449.943787,486.554016 451.202667,487.390289 453.571136,484.012512
	C465.628204,466.817108 477.841553,449.731110 490.026520,432.625549
	C498.905579,420.160919 507.825562,407.725464 516.757935,395.234192
	C517.265869,395.792908 517.889893,396.158661 517.890503,396.525452
	C517.957153,436.183594 517.977173,475.841797 517.999878,516.500000
M586.364624,680.972839
	C586.049805,681.053894 585.672485,681.049622 585.429199,681.228149
	C567.820984,694.153320 550.341736,707.258545 532.568970,719.953064
	C525.090027,725.295044 516.993225,729.771912 509.520477,734.428162
	C511.244476,738.953918 512.977417,743.502991 515.023438,748.874023
	C533.831543,737.002869 552.748657,726.042908 570.586060,713.542358
	C590.392090,699.662231 609.427490,684.616455 626.302307,667.129517
	C632.734314,660.464172 638.786926,653.431274 644.971130,646.528809
	C659.539124,630.268921 670.518677,611.896362 677.907593,590.375732
	C676.526001,591.411255 675.686707,591.844910 675.105042,592.505432
	C665.813354,603.056641 656.944336,614.012085 647.205444,624.130859
	C628.111267,643.969666 608.687378,663.507446 586.364624,680.972839
z"/>
<path fill="currentColor" opacity="1.000000" stroke="none"
	d="
M517.999878,516.000000
	C517.977173,475.841797 517.957153,436.183594 517.890503,396.525452
	C517.889893,396.158661 517.265869,395.792908 516.757935,395.234192
	C507.825562,407.725464 498.905579,420.160919 490.026520,432.625549
	C477.841553,449.731110 465.628204,466.817108 453.571136,484.012512
	C451.202667,487.390289 449.943787,486.554016 447.960754,483.743195
	C427.610535,454.898193 407.182617,426.107910 386.734741,397.331970
	C386.025452,396.333832 384.880371,395.645386 383.208435,394.167236
	C383.208435,478.559113 383.208435,562.020203 383.208435,645.481262
	C382.861816,645.620056 382.515198,645.758850 382.168579,645.897583
	C377.090027,639.074280 371.841583,632.369629 366.970856,625.401001
	C358.715546,613.589844 351.431519,601.211487 346.944458,587.413879
	C345.947632,584.348633 345.084564,581.062866 345.080597,577.877502
	C344.979584,496.393250 345.000793,414.908783 345.005981,333.424377
	C345.006042,332.784912 345.078766,332.145416 345.148163,331.000610
	C356.040314,331.000610 366.842224,331.495392 377.570068,330.817657
	C384.155701,330.401611 387.875061,332.272339 391.687958,337.882690
	C409.782196,364.506775 428.502960,390.705109 447.009735,417.048706
	C448.418274,419.053711 449.897766,421.008881 451.462128,423.148438
	C467.398926,400.706482 483.197418,378.454346 499.001862,356.206390
	C504.480469,348.494141 509.812744,340.668243 515.584473,333.181458
	C516.867981,331.516602 519.717041,330.195404 521.854614,330.181641
	C553.847046,329.976318 585.852783,329.492462 617.830078,330.207733
	C635.440002,330.601654 651.935730,336.215790 665.000977,348.708069
	C673.787537,357.109406 678.914978,367.978302 680.889893,379.933868
	C682.987244,392.631287 682.946777,405.389069 679.004822,417.881958
	C673.990662,433.773132 664.643311,445.667389 647.990112,451.530670
	C657.338379,455.366394 665.537231,460.368713 672.237671,467.684082
	C682.091064,478.441833 686.804504,491.191406 688.053223,505.559937
	C689.133667,517.992310 688.461914,530.217834 684.392273,542.040039
	C676.776855,564.162720 660.438782,577.359009 638.749390,583.747986
	C628.377747,586.803101 617.288452,588.522705 606.476624,588.770264
	C577.187195,589.440857 547.872375,589.000122 517.999878,589.000122
	C517.999878,564.686279 517.999878,540.593140 517.999878,516.000000
M554.994019,545.269409
	C554.766174,547.364014 554.538269,549.458618 554.261780,552.000183
	C555.742126,552.000183 557.364990,552.037903 558.985535,551.994202
	C570.933533,551.671997 582.888367,551.492310 594.826355,550.947144
	C603.521484,550.550110 612.307190,550.310852 620.846191,548.819763
	C629.951660,547.229736 637.929199,543.023560 643.589478,535.037170
	C649.420410,526.809998 650.975708,517.634644 649.894836,508.070679
	C648.381348,494.678833 642.731445,483.541718 630.146484,477.015045
	C621.400269,472.479126 611.834656,471.344727 602.257996,471.097107
	C587.788757,470.722961 573.302673,470.991852 558.823792,471.011810
	C557.379395,471.013824 555.935242,471.184143 554.980530,471.245117
	C554.980530,495.859009 554.980530,520.088318 554.994019,545.269409
M553.998474,411.499939
	C553.998962,417.492310 554.267883,423.500763 553.911194,429.471771
	C553.647156,433.890259 555.098511,435.250732 559.518677,435.086243
	C574.474487,434.529663 589.454529,434.569946 604.402405,433.883087
	C610.330017,433.610687 616.273621,432.354126 622.078979,430.988586
	C645.006104,425.595764 647.103577,395.733337 638.851318,382.384155
	C632.235229,371.681549 621.790955,367.429688 609.884216,367.116638
	C592.584839,366.661804 575.264526,366.994324 557.953186,367.011810
	C556.688354,367.013092 555.423706,367.182281 553.998474,367.284973
	C553.998474,381.904572 553.998474,396.202271 553.998474,411.499939
z"/>
<path fill="currentColor" opacity="1.000000" stroke="none"
	d="
M586.660889,680.763550
	C608.687378,663.507446 628.111267,643.969666 647.205444,624.130859
	C656.944336,614.012085 665.813354,603.056641 675.105042,592.505432
	C675.686707,591.844910 676.526001,591.411255 677.907593,590.375732
	C670.518677,611.896362 659.539124,630.268921 644.971130,646.528809
	C638.786926,653.431274 632.734314,660.464172 626.302307,667.129517
	C609.427490,684.616455 590.392090,699.662231 570.586060,713.542358
	C552.748657,726.042908 533.831543,737.002869 515.023438,748.874023
	C512.977417,743.502991 511.244476,738.953918 509.520477,734.428162
	C516.993225,729.771912 525.090027,725.295044 532.568970,719.953064
	C550.341736,707.258545 567.820984,694.153320 585.429199,681.228149
	C585.672485,681.049622 586.049805,681.053894 586.660889,680.763550
z"/>
<path fill="none" opacity="1.000000" stroke="none"
	d="
M554.987305,544.793579
	C554.980530,520.088318 554.980530,495.859009 554.980530,471.245117
	C555.935242,471.184143 557.379395,471.013824 558.823792,471.011810
	C573.302673,470.991852 587.788757,470.722961 602.257996,471.097107
	C611.834656,471.344727 621.400269,472.479126 630.146484,477.015045
	C642.731445,483.541718 648.381348,494.678833 649.894836,508.070679
	C650.975708,517.634644 649.420410,526.809998 643.589478,535.037170
	C637.929199,543.023560 629.951660,547.229736 620.846191,548.819763
	C612.307190,550.310852 603.521484,550.550110 594.826355,550.947144
	C582.888367,551.492310 570.933533,551.671997 558.985535,551.994202
	C557.364990,552.037903 555.742126,552.000183 554.261780,552.000183
	C554.538269,549.458618 554.766174,547.364014 554.987305,544.793579
z"/>
<path fill="none" opacity="1.000000" stroke="none"
	d="
M553.998474,410.999939
	C553.998474,396.202271 553.998474,381.904572 553.998474,367.284973
	C555.423706,367.182281 556.688354,367.013092 557.953186,367.011810
	C575.264526,366.994324 592.584839,366.661804 609.884216,367.116638
	C621.790955,367.429688 632.235229,371.681549 638.851318,382.384155
	C647.103577,395.733337 645.006104,425.595764 622.078979,430.988586
	C616.273621,432.354126 610.330017,433.610687 604.402405,433.883087
	C589.454529,434.569946 574.474487,434.529663 559.518677,435.086243
	C555.098511,435.250732 553.647156,433.890259 553.911194,429.471771
	C554.267883,423.500763 553.998962,417.492310 553.998474,410.999939
z"/>
</svg>